<svg width="190" height="144" viewBox="0 0 190 144" fill="none" xmlns="http://www.w3.org/2000/svg">
<g clip-path="url(#clip0_330_195)">
<path d="M142.991 34.0166H142.205V12.4704C142.205 9.16303 140.891 5.99114 138.552 3.65249C136.213 1.31385 133.042 4.17323e-06 129.734 0H84.0856C82.448 -4.39096e-06 80.8264 0.322547 79.3134 0.949238C77.8005 1.57593 76.4257 2.49449 75.2677 3.65246C74.1098 4.81044 73.1912 6.18516 72.5645 7.69814C71.9378 9.21111 71.6152 10.8327 71.6152 12.4703V130.675C71.6152 132.312 71.9378 133.934 72.5645 135.447C73.1912 136.96 74.1097 138.335 75.2677 139.493C76.4257 140.651 77.8004 141.569 79.3134 142.196C80.8264 142.822 82.448 143.145 84.0856 143.145H129.734C133.042 143.145 136.213 141.831 138.552 139.493C140.891 137.154 142.205 133.982 142.205 130.675V49.3536H142.991L142.991 34.0166Z" fill="#3F3D56"/>
<path d="M130.237 3.24438H124.279C124.553 3.9162 124.657 4.64509 124.583 5.36686C124.509 6.08862 124.259 6.7811 123.854 7.38329C123.449 7.98549 122.903 8.47892 122.262 8.82011C121.622 9.1613 120.908 9.33978 120.182 9.33984H94.0307C93.3052 9.33979 92.5908 9.1613 91.9504 8.82011C91.3101 8.47892 90.7635 7.98549 90.3588 7.3833C89.9541 6.7811 89.7037 6.08862 89.6297 5.36686C89.5557 4.6451 89.6603 3.9162 89.9343 3.24438H84.3689C81.899 3.24438 79.5303 4.22554 77.7838 5.97201C76.0373 7.71849 75.0562 10.0872 75.0562 12.5571V130.588C75.0562 131.811 75.297 133.022 75.765 134.152C76.233 135.282 76.919 136.308 77.7838 137.173C78.6486 138.038 79.6752 138.724 80.805 139.192C81.9349 139.66 83.1459 139.901 84.3689 139.901H130.237C131.46 139.901 132.671 139.66 133.801 139.192C134.931 138.724 135.958 138.038 136.822 137.173C137.687 136.308 138.373 135.282 138.841 134.152C139.309 133.022 139.55 131.811 139.55 130.588V130.588V12.5571C139.55 11.3341 139.309 10.1231 138.841 8.99327C138.373 7.8634 137.687 6.83678 136.822 5.97201C135.958 5.10724 134.931 4.42128 133.801 3.95327C132.671 3.48526 131.46 3.24438 130.237 3.24438V3.24438Z" fill="white"/>
<path d="M116.805 54.4251C121.367 54.4251 125.065 54.0728 125.065 53.6383C125.065 53.2038 121.367 52.8516 116.805 52.8516C112.242 52.8516 108.544 53.2038 108.544 53.6383C108.544 54.0728 112.242 54.4251 116.805 54.4251Z" fill="#E6E6E6"/>
<path d="M190 19.6428H113.95V44.6086H116.831V51.1382L123.36 44.6086H190V19.6428Z" fill="#145164"/>
<path d="M156.997 28.0972H122.415V29.1466H156.997V28.0972Z" fill="white"/>
<path d="M182.688 31.7276H122.415V32.7771H182.688V31.7276Z" fill="white"/>
<path d="M182.629 35.3581H122.415V36.4076H182.629V35.3581Z" fill="white"/>
<path d="M170.571 94.9427H109.866V114.871H112.165V120.083L117.377 114.871H170.571V94.9427Z" fill="#145164"/>
<path d="M144.227 101.691H116.622V102.529H144.227V101.691Z" fill="white"/>
<path d="M164.734 104.589H116.622V105.427H164.734V104.589Z" fill="white"/>
<path d="M164.687 107.487H116.622V108.325H164.687V107.487Z" fill="white"/>
<path d="M112.144 122.707C115.786 122.707 118.738 122.426 118.738 122.079C118.738 121.732 115.786 121.451 112.144 121.451C108.502 121.451 105.55 121.732 105.55 122.079C105.55 122.426 108.502 122.707 112.144 122.707Z" fill="#E6E6E6"/>
<path d="M93.9889 83.5348C98.5513 83.5348 102.25 83.1826 102.25 82.7481C102.25 82.3135 98.5513 81.9613 93.9889 81.9613C89.4266 81.9613 85.728 82.3135 85.728 82.7481C85.728 83.1826 89.4266 83.5348 93.9889 83.5348Z" fill="#E6E6E6"/>
<path d="M43.3569 58.7888H96.8377V76.3458H94.8118V80.9374L90.2201 76.3458H43.3569V58.7888Z" fill="#145164"/>
<path d="M73.2231 64.5992H48.9041V65.3372H73.2231V64.5992Z" fill="white"/>
<path d="M91.2901 67.1522H48.9041V67.8902H91.2901V67.1522Z" fill="white"/>
<path d="M91.2486 69.7053H48.9041V70.4433H91.2486V69.7053Z" fill="white"/>
<path d="M17.3053 101.615C17.5617 102.056 17.9831 102.378 18.4766 102.509C18.9702 102.64 19.4955 102.569 19.9371 102.313C20.3786 102.056 20.7002 101.635 20.8311 101.141C20.962 100.648 20.8915 100.122 20.6351 99.6809C20.5813 99.5907 20.5206 99.5047 20.4538 99.4236L22.0733 87.8802L22.1218 87.5343L22.4508 85.1788L22.4993 84.8393L22.3201 84.8477L19.1822 84.9911L18.3408 85.0291L18.2353 87.1779L17.6385 99.2592C17.3267 99.5575 17.1243 99.952 17.0639 100.379C17.0034 100.806 17.0885 101.242 17.3053 101.615V101.615Z" fill="#A0616A"/>
<path d="M22.1127 87.6394L18.1282 87.2739C17.9215 87.2543 17.731 87.1538 17.5981 86.9944C17.4652 86.8349 17.4007 86.6293 17.4187 86.4225L18.1578 78.1367C18.1936 77.7342 18.3098 77.3431 18.4995 76.9863C18.6891 76.6296 18.9484 76.3145 19.262 76.0597C19.5756 75.8049 19.9371 75.6157 20.3252 75.5031C20.7132 75.3905 21.1199 75.3569 21.5211 75.4043C21.9224 75.4516 22.31 75.579 22.6612 75.7788C23.0124 75.9787 23.3199 76.2469 23.5655 76.5677C23.8112 76.8885 23.99 77.2553 24.0914 77.6464C24.1928 78.0375 24.2147 78.445 24.1558 78.8447L22.961 86.972C22.9336 87.1582 22.8402 87.3283 22.6978 87.4515C22.5554 87.5746 22.3736 87.6424 22.1853 87.6427C22.1613 87.6427 22.137 87.6417 22.1127 87.6394Z" fill="#CCCCCC"/>
<path d="M19.0929 80.9449C18.6899 79.8034 18.6712 78.5614 19.0397 77.4083C19.4082 76.2552 20.1436 75.2542 21.1339 74.5579C22.6364 73.5298 24.6925 73.1608 26.9067 75.7968C31.3351 81.0688 32.495 86.8679 32.495 86.8679L23.4272 88.3441C23.4272 88.3441 20.3431 84.5747 19.0929 80.9449Z" fill="#CCCCCC"/>
<path d="M33.7584 140.33H36.3437L37.5736 130.358L33.7581 130.358L33.7584 140.33Z" fill="#A0616A"/>
<path d="M41.3298 142.73L33.2045 142.73L33.2044 139.591L38.8225 139.591C39.1517 139.591 39.4778 139.656 39.782 139.782C40.0862 139.908 40.3626 140.092 40.5954 140.325C40.8282 140.558 41.0129 140.834 41.1389 141.138C41.2649 141.443 41.3298 141.769 41.3298 142.098L41.3298 142.73V142.73Z" fill="#2F2E41"/>
<path d="M12.5032 138.075L14.9578 138.886L19.2555 129.804L15.6327 128.607L12.5032 138.075Z" fill="#A0616A"/>
<path d="M18.9385 142.73L11.2237 140.18L12.2089 137.2L17.5432 138.963C17.8558 139.066 18.145 139.23 18.3943 139.445C18.6435 139.66 18.848 139.922 18.996 140.216C19.144 140.511 19.2326 140.831 19.2568 141.159C19.2809 141.488 19.2402 141.818 19.1369 142.13L18.9385 142.73Z" fill="#2F2E41"/>
<path d="M27.269 71.3086C29.779 69.9366 30.7014 66.7896 29.3293 64.2796C27.9573 61.7696 24.8103 60.8472 22.3003 62.2193C19.7903 63.5913 18.8679 66.7383 20.24 69.2483C21.612 71.7583 24.759 72.6807 27.269 71.3086Z" fill="#A0616A"/>
<path d="M29.3195 137.554L26.9186 121.707C26.8929 121.538 26.8094 121.383 26.6822 121.269C26.5549 121.154 26.3919 121.088 26.221 121.08C26.0501 121.073 25.882 121.125 25.7452 121.228C25.6085 121.331 25.5118 121.478 25.4715 121.644L21.8153 136.745C21.7577 136.977 21.6157 137.178 21.4172 137.31C21.2187 137.442 20.978 137.496 20.7424 137.459L10.6571 135.838C10.5234 135.817 10.3958 135.767 10.283 135.692C10.1701 135.617 10.0746 135.519 10.0028 135.404C9.93105 135.289 9.8847 135.16 9.86689 135.026C9.84907 134.892 9.8602 134.755 9.89953 134.626L23.0501 91.2701C23.0875 91.1467 23.0919 91.0157 23.063 90.8901L22.6251 88.9928C22.577 88.7871 22.5992 88.5712 22.6881 88.3796C22.777 88.188 22.9276 88.0316 23.1157 87.9355C24.9065 87.0218 29.4411 85.1222 32.8649 87.203C32.976 87.2708 33.0722 87.3605 33.1476 87.4666C33.223 87.5727 33.276 87.693 33.3034 87.8202L43.5766 136.104C43.6045 136.235 43.6043 136.371 43.5759 136.502C43.5475 136.634 43.4916 136.757 43.4119 136.865C43.3322 136.973 43.2304 137.063 43.1134 137.129C42.9964 137.195 42.8668 137.235 42.7331 137.247L30.3425 138.357C30.3139 138.359 30.2855 138.36 30.2574 138.36C30.0305 138.36 29.8113 138.278 29.6393 138.13C29.4673 137.982 29.3539 137.778 29.3195 137.554Z" fill="#2F2E41"/>
<path d="M21.3504 63.1045C21.7408 62.8697 22.0873 62.5686 22.3742 62.2147C22.5158 62.0359 22.6089 61.8237 22.6447 61.5985C22.6805 61.3734 22.6578 61.1428 22.5787 60.9289C22.317 60.3516 21.5394 60.1688 20.9369 60.3656C20.3344 60.5624 19.8689 61.0344 19.4286 61.4903C19.0407 61.8919 18.6417 62.311 18.4577 62.8381C18.2737 63.3652 18.3682 64.0334 18.8259 64.3533C19.275 64.6671 19.9207 64.5386 20.3526 64.2016C20.7846 63.8645 21.052 63.3643 21.3069 62.8794L21.3504 63.1045Z" fill="#2F2E41"/>
<path d="M19.5962 61.6288C19.5675 60.1694 17.904 59.123 16.4674 59.3816C15.0309 59.6402 13.9266 60.8651 13.3738 62.216C12.206 65.0703 13.0827 68.3271 14.208 71.1985C15.3333 74.0699 16.7258 76.9848 16.5617 80.0645C16.4507 81.7292 15.8922 83.333 14.9452 84.7066C13.9981 86.0801 12.6976 87.1724 11.1812 87.8679C12.8025 88.6028 14.7404 87.8436 16.1028 86.698C19.1285 84.1536 20.2964 79.6239 18.8782 75.9338C18.1787 74.1137 16.9459 72.5567 15.9835 70.8609C15.021 69.1651 14.3149 67.1667 14.8118 65.2812C15.3087 63.3957 17.4233 61.8686 19.2312 62.5991L19.5962 61.6288Z" fill="#2F2E41"/>
<path d="M25.0952 69.0623C24.6437 68.2993 24.1879 67.2976 25.0134 66.6307C25.1928 66.4922 25.3982 66.3911 25.6173 66.3332C25.8364 66.2752 26.0649 66.2617 26.2893 66.2933C27.2198 66.4055 28.233 66.4517 29.1335 66.1137C29.4713 65.9974 29.7822 65.8145 30.0479 65.5757C30.3136 65.337 30.5287 65.0473 30.6802 64.7239C31.1452 63.6223 30.563 62.2836 29.591 61.5872C28.9964 61.1767 28.2938 60.9509 27.5713 60.9381C26.8488 60.9253 26.1387 61.1261 25.5299 61.5154C24.271 60.9594 22.7436 61.2066 21.5999 61.9721C20.4562 62.7375 19.6736 63.9633 19.2484 65.2722C18.8568 66.3988 18.7893 67.6128 19.0538 68.7759C19.2666 69.585 19.6713 70.331 20.2335 70.9505C20.7958 71.5701 21.499 72.0451 22.2838 72.3352C22.5895 72.4557 22.9215 72.4938 23.2465 72.4455C23.5716 72.3973 23.8782 72.2645 24.1358 72.0605C24.1358 72.0605 24.8496 71.4373 25.073 70.6867C25.2446 70.1103 25.3364 69.47 25.0952 69.0623Z" fill="#2F2E41"/>
<path d="M40.4602 73.6838C40.4343 73.7976 40.4175 73.9133 40.4098 74.0297L31.351 79.2557L29.1491 77.9881L26.8018 81.0611L30.4817 83.6839C30.7789 83.8958 31.1369 84.0055 31.5019 83.9966C31.8669 83.9878 32.2191 83.8607 32.5057 83.6346L41.8469 76.2653C42.2685 76.4213 42.7275 76.4453 43.1631 76.3341C43.5986 76.2229 43.99 75.9817 44.2851 75.6426C44.5802 75.3035 44.7651 74.8826 44.8152 74.4359C44.8653 73.9892 44.7781 73.5378 44.5654 73.1418C44.3527 72.7458 44.0244 72.4239 43.6243 72.219C43.2242 72.0141 42.7712 71.9359 42.3256 71.9948C41.8799 72.0536 41.4627 72.2467 41.1295 72.5485C40.7963 72.8502 40.5629 73.2462 40.4602 73.6838V73.6838Z" fill="#A0616A"/>
<path d="M31.0482 79.5032L28.1204 83.2977C28.0371 83.4057 27.9315 83.4945 27.8108 83.5579C27.6901 83.6214 27.5572 83.6581 27.421 83.6656C27.2849 83.673 27.1487 83.6511 27.0218 83.6011C26.8949 83.5512 26.7802 83.4746 26.6856 83.3763L23.3712 79.9345C22.8211 79.5052 22.4637 78.8753 22.3774 78.1829C22.2911 77.4905 22.4829 76.7921 22.9108 76.2409C23.3387 75.6897 23.9677 75.3307 24.6599 75.2426C25.3521 75.1545 26.0509 75.3445 26.6032 75.7709L30.7603 78.0954C30.8793 78.162 30.9825 78.2534 31.063 78.3635C31.1435 78.4736 31.1993 78.5998 31.2266 78.7334C31.2539 78.867 31.2521 79.0049 31.2213 79.1377C31.1906 79.2706 31.1315 79.3952 31.0482 79.5032V79.5032Z" fill="#CCCCCC"/>
<path d="M60.8302 143.145H0.246277C0.18096 143.145 0.118319 143.119 0.0721327 143.073C0.0259469 143.027 0 142.964 0 142.899C0 142.833 0.0259469 142.771 0.0721327 142.725C0.118319 142.678 0.18096 142.652 0.246277 142.652H60.8302C60.8955 142.652 60.9582 142.678 61.0043 142.725C61.0505 142.771 61.0765 142.833 61.0765 142.899C61.0765 142.964 61.0505 143.027 61.0043 143.073C60.9582 143.119 60.8955 143.145 60.8302 143.145H60.8302Z" fill="#CCCCCC"/>
</g>
<defs>
<clipPath id="clip0_330_195">
<rect width="190" height="143.145" fill="white"/>
</clipPath>
</defs>
</svg>
