<svg width="190" height="127" viewBox="0 0 190 127" fill="none" xmlns="http://www.w3.org/2000/svg">
<g clip-path="url(#clip0_330_228)">
<path d="M34.0465 76.0353C33.9209 75.9979 33.7925 75.9705 33.6625 75.9533L28.4743 65.4299L30.0582 63.0595L26.787 60.2057L22.6746 65.2289L31.05 77.3964C30.8439 77.8565 30.7831 78.3684 30.8756 78.8639C30.9681 79.3595 31.2095 79.8151 31.5677 80.1703C31.926 80.5256 32.3841 80.7635 32.8811 80.8525C33.3781 80.9415 33.8905 80.8774 34.3501 80.6686C34.8097 80.4599 35.1948 80.1164 35.454 79.6838C35.7133 79.2513 35.8345 78.7502 35.8016 78.2473C35.7686 77.7443 35.5831 77.2633 35.2695 76.8681C34.956 76.473 34.5295 76.1825 34.0465 76.0353Z" fill="#FFB0BC"/>
<path d="M25.1897 61.6596C25.2604 61.7339 25.3415 61.7977 25.4304 61.849L30.7388 64.9208C30.8664 64.9947 31.008 65.0413 31.1545 65.0577C31.3011 65.0742 31.4495 65.0601 31.5903 65.0163C31.7311 64.9726 31.8613 64.9002 31.9727 64.8036C32.084 64.7071 32.1741 64.5885 32.2371 64.4554L34.819 59.0106C34.9288 58.7815 34.9524 58.5206 34.8856 58.2755C34.8187 58.0304 34.6658 57.8175 34.4547 57.6756L31.1641 55.441C30.9586 55.3016 30.7108 55.2382 30.4635 55.2617C30.2162 55.2852 29.9848 55.3941 29.8094 55.5697L25.21 60.177C25.0143 60.3731 24.9028 60.6375 24.899 60.9142C24.8952 61.1909 24.9995 61.4582 25.1897 61.6596Z" fill="#CCCCCC"/>
<path d="M17.7362 121.96L20.5389 122.721L24.8142 112.292L20.6776 111.169L17.7362 121.96Z" fill="#FFB0BC"/>
<path d="M22.7588 122.466L17.3536 120.998L16.4276 124.395L25.2361 126.787C25.3577 126.341 25.3901 125.875 25.3314 125.417C25.2727 124.958 25.1241 124.516 24.8941 124.114C24.6641 123.713 24.3571 123.361 23.9907 123.078C23.6243 122.795 23.2057 122.587 22.7588 122.466Z" fill="#2F2E41"/>
<path d="M41.6963 124.095L44.6007 124.095L45.9827 112.911L41.6958 112.911L41.6963 124.095Z" fill="#FFB0BC"/>
<path d="M46.6756 123.266H41.0739V126.787H50.2026C50.2026 126.325 50.1114 125.867 49.9342 125.44C49.7569 125.012 49.4971 124.624 49.1696 124.297C48.8421 123.971 48.4533 123.711 48.0254 123.534C47.5974 123.357 47.1388 123.266 46.6756 123.266Z" fill="#2F2E41"/>
<path d="M38.636 51.7286C35.4223 51.7286 32.817 49.128 32.817 45.9199C32.817 42.7119 35.4223 40.1113 38.636 40.1113C41.8498 40.1113 44.4551 42.7119 44.4551 45.9199C44.4551 49.128 41.8498 51.7286 38.636 51.7286Z" fill="#FFB0BC"/>
<path d="M41.8741 116.121H45.8435C46.1148 116.121 46.3758 116.017 46.5736 115.832C46.7713 115.646 46.8911 115.393 46.9086 115.122C48.0913 96.3535 47.3995 82.8902 44.7313 72.7528C44.7196 72.7085 44.7052 72.6649 44.6881 72.6223L44.4755 72.0918C44.397 71.8939 44.2605 71.7242 44.0839 71.6049C43.9073 71.4855 43.6988 71.422 43.4856 71.4227H35.3232C35.1694 71.4226 35.0173 71.4558 34.8776 71.5199C34.7378 71.5841 34.6137 71.6777 34.5137 71.7943L33.405 73.0856C33.3834 73.1108 33.3631 73.1364 33.3436 73.1635C28.3443 80.1226 23.8641 93.728 18.6753 112.015C18.5987 112.281 18.6291 112.566 18.76 112.81C18.8909 113.053 19.112 113.236 19.3762 113.32L23.6419 114.682C23.8868 114.759 24.1513 114.746 24.3872 114.645C24.623 114.544 24.8147 114.361 24.9272 114.131L35.9968 91.2125C36.0742 91.0523 36.2013 90.9212 36.3591 90.8388C36.5169 90.7563 36.6972 90.7267 36.8732 90.7545C37.0491 90.7822 37.2115 90.8658 37.3361 90.9928C37.4608 91.1199 37.5412 91.2836 37.5653 91.4598L40.8178 115.201C40.8535 115.456 40.98 115.689 41.174 115.858C41.3681 116.027 41.6166 116.12 41.8741 116.121Z" fill="#2F2E41"/>
<path d="M33.8525 73.1801C33.8636 73.1801 33.8747 73.1798 33.886 73.1796L43.8007 72.8671C44.0556 72.86 44.2995 72.7616 44.4878 72.59C44.676 72.4183 44.7962 72.1848 44.8263 71.932C46.0831 61.7764 42.6362 59.0557 41.0958 58.3575C40.9671 58.2996 40.8556 58.2094 40.772 58.0957C40.6885 57.982 40.6358 57.8488 40.6191 57.7088L40.4858 56.6443C40.4631 56.4563 40.3903 56.2779 40.2751 56.1274C37.8601 53.0044 34.5623 52.0044 32.8115 51.6864C32.6695 51.6609 32.5238 51.6645 32.3832 51.697C32.2427 51.7294 32.1102 51.7901 31.9938 51.8752C31.8774 51.9604 31.7796 52.0683 31.7063 52.1923C31.633 52.3163 31.5857 52.454 31.5674 52.5968L31.3677 54.1253C31.3473 54.2711 31.2891 54.409 31.1987 54.5253C26.1619 61.0981 31.7731 70.8028 32.9491 72.6814C33.0452 72.834 33.1784 72.9597 33.3364 73.0469C33.4944 73.1341 33.6719 73.1799 33.8525 73.1801Z" fill="#CCCCCC"/>
<path d="M26.8958 46.5739C28.1939 44.7493 29.7506 43.1225 31.5171 41.7445C32.9855 40.5995 34.6202 39.6212 36.4236 39.1533C38.2271 38.6854 40.2187 38.765 41.8641 39.6379C43.5096 40.5108 45.2107 42.2452 45.2211 44.1053C45.2244 44.7028 45.0721 45.5112 44.4826 45.4078L44.3121 45.4304C42.89 45.1437 41.4679 44.857 40.0459 44.5703C39.4402 46.6685 38.8345 48.7667 38.2288 50.8649C38.1011 51.3071 37.9299 51.8016 37.5094 51.9902C37.1133 52.1678 36.6554 52.0004 36.2547 51.8335C36.1887 51.806 35.6225 50.5371 35.6225 50.5371C35.6083 50.4974 35.5837 50.4622 35.5514 50.4352C35.5191 50.4082 35.4801 50.3903 35.4385 50.3833C35.3969 50.3764 35.3542 50.3806 35.3148 50.3957C35.2754 50.4107 35.2407 50.436 35.2143 50.4688L34.8779 50.8885C34.8137 50.9687 34.725 51.0259 34.6253 51.0513C34.5256 51.0767 34.4204 51.0691 34.3254 51.0295C32.0063 50.0631 29.6872 49.0968 27.368 48.1304C27.0476 47.9968 26.6893 47.8224 26.5964 47.4883C26.5073 47.1683 26.7033 46.8447 26.8958 46.5739Z" fill="#2F2E41"/>
<path d="M0.237005 127H71.5504C71.6133 127 71.6735 126.975 71.718 126.931C71.7624 126.886 71.7874 126.826 71.7874 126.763C71.7874 126.701 71.7624 126.641 71.718 126.596C71.6735 126.552 71.6133 126.527 71.5504 126.527H0.237005C0.17417 126.527 0.113911 126.552 0.0694798 126.596C0.0250483 126.641 8.35806e-05 126.701 8.35806e-05 126.763C8.35806e-05 126.826 0.0250483 126.886 0.0694798 126.931C0.113911 126.975 0.17417 127 0.237005 127Z" fill="#2F2E41"/>
<path d="M38.8986 90.145C39.0597 90.1443 39.2165 90.0925 39.3461 89.9971L40.4246 89.2149C40.5141 89.1497 40.622 89.1145 40.7328 89.1145C40.8436 89.1145 40.9515 89.1497 41.041 89.2149L42.1195 89.9971C42.2495 90.0914 42.4062 90.1422 42.5669 90.1422C42.7277 90.1422 42.8844 90.0914 43.0144 89.9971C43.1445 89.9028 43.2413 89.7698 43.291 89.6171C43.3407 89.4645 43.3407 89.3001 43.2911 89.1475L42.8791 87.882C42.8447 87.7768 42.8446 87.6635 42.8788 87.5583C42.913 87.4531 42.9799 87.3615 43.0697 87.2967L44.1481 86.5145C44.2782 86.4201 44.375 86.2871 44.4247 86.1345C44.4743 85.9819 44.4743 85.8174 44.4246 85.6648C44.375 85.5122 44.2781 85.3792 44.1481 85.2848C44.018 85.1905 43.8614 85.1397 43.7006 85.1397H42.3676C42.2568 85.1399 42.1488 85.105 42.0591 85.04C41.9695 84.975 41.9028 84.8833 41.8688 84.778L41.4569 83.5125C41.4072 83.3598 41.3104 83.2268 41.1804 83.1325C41.0503 83.0381 40.8936 82.9873 40.7328 82.9873C40.572 82.9873 40.4154 83.0381 40.2853 83.1325C40.1552 83.2268 40.0584 83.3598 40.0088 83.5125L39.5968 84.778C39.5628 84.8833 39.4961 84.975 39.4065 85.04C39.3169 85.105 39.2089 85.1399 39.0981 85.1397H37.7651C37.6043 85.1397 37.4476 85.1905 37.3176 85.2848C37.1875 85.3792 37.0907 85.5122 37.041 85.6648C36.9913 85.8174 36.9913 85.9819 37.041 86.1345C37.0907 86.2871 37.1875 86.4201 37.3175 86.5145L38.396 87.2966C38.4858 87.3615 38.5526 87.4531 38.5868 87.5583C38.621 87.6635 38.6209 87.7768 38.5865 87.882L38.1745 89.1475C38.123 89.3 38.1221 89.4649 38.172 89.618C38.2218 89.771 38.3197 89.9039 38.4511 89.9971C38.5808 90.0925 38.7375 90.1443 38.8986 90.145Z" fill="#145164"/>
<path d="M34.7772 87.6149C34.4726 87.4016 34.2185 87.1242 34.0329 86.8023C33.8472 86.4804 33.7346 86.1218 33.7028 85.7518C33.671 85.3817 33.7209 85.0092 33.849 84.6604C33.977 84.3117 34.1801 83.9952 34.444 83.7333L32.6023 61.5328L38.0857 62.2858L38.19 83.8556C38.6014 84.3272 38.8252 84.9331 38.819 85.5584C38.8128 86.1837 38.577 86.785 38.1563 87.2484C37.7356 87.7118 37.1593 88.005 36.5365 88.0725C35.9137 88.1401 35.2878 87.9772 34.7772 87.6149Z" fill="#FFB0BC"/>
<path d="M32.2439 64.7296C32.3467 64.7296 32.4488 64.7148 32.5473 64.6857L38.4339 62.9575C38.5754 62.916 38.7067 62.8456 38.8196 62.7508C38.9324 62.656 39.0243 62.5389 39.0895 62.4068C39.1547 62.2748 39.1917 62.1306 39.1982 61.9836C39.2047 61.8365 39.1806 61.6896 39.1273 61.5524L36.9488 55.9346C36.858 55.6973 36.6847 55.5006 36.4606 55.3802C36.2365 55.2599 35.9765 55.224 35.7281 55.2791L31.8391 56.123C31.5963 56.1758 31.3796 56.3115 31.2264 56.5068C31.0732 56.702 30.9931 56.9445 30.9998 57.1924L31.1808 63.6942C31.1885 63.9709 31.3038 64.2336 31.5023 64.4269C31.7007 64.6201 31.9667 64.7287 32.2439 64.7296Z" fill="#CCCCCC"/>
<path d="M87.6498 92.4711H188.342C188.781 92.4706 189.203 92.2961 189.514 91.9857C189.825 91.6753 190 91.2545 190 90.8156V60.7802C190 60.3413 189.825 59.9205 189.514 59.6102C189.203 59.2998 188.781 59.1252 188.342 59.1248H87.6498C87.2101 59.1252 86.7886 59.2998 86.4777 59.6102C86.1667 59.9205 85.9919 60.3413 85.9914 60.7802V90.8156C85.9919 91.2545 86.1667 91.6753 86.4777 91.9857C86.7886 92.2961 87.2101 92.4706 87.6498 92.4711ZM188.342 59.5978C188.656 59.5981 188.957 59.7228 189.179 59.9445C189.401 60.1662 189.526 60.4667 189.526 60.7802V90.8156C189.526 91.1291 189.401 91.4297 189.179 91.6514C188.957 91.8731 188.656 91.9978 188.342 91.9981H87.6498C87.3357 91.9978 87.0346 91.8731 86.8126 91.6514C86.5905 91.4297 86.4656 91.1291 86.4652 90.8156V60.7802C86.4656 60.4667 86.5905 60.1662 86.8126 59.9445C87.0346 59.7228 87.3357 59.5981 87.6498 59.5978H188.342Z" fill="#2F2E41"/>
<path d="M144.28 105.118C144.477 105.117 144.669 105.054 144.828 104.937L146.149 103.979C146.259 103.899 146.391 103.856 146.527 103.856C146.663 103.856 146.795 103.899 146.905 103.979L148.226 104.937C148.385 105.052 148.577 105.115 148.774 105.115C148.971 105.115 149.163 105.052 149.322 104.937C149.481 104.821 149.6 104.658 149.661 104.471C149.722 104.284 149.722 104.083 149.661 103.896L149.156 102.346C149.114 102.217 149.114 102.078 149.156 101.949C149.198 101.82 149.28 101.708 149.39 101.629L150.711 100.67C150.87 100.555 150.989 100.392 151.05 100.205C151.111 100.018 151.111 99.8166 151.05 99.6296C150.989 99.4426 150.87 99.2796 150.711 99.1641C150.552 99.0485 150.36 98.9863 150.163 98.9863H148.53C148.394 98.9865 148.262 98.9438 148.152 98.8641C148.042 98.7845 147.96 98.6721 147.919 98.5432L147.414 96.9929C147.353 96.8059 147.235 96.6429 147.075 96.5273C146.916 96.4117 146.724 96.3495 146.527 96.3495C146.33 96.3495 146.138 96.4117 145.979 96.5273C145.819 96.6429 145.701 96.8059 145.64 96.9929L145.135 98.5432C145.094 98.6721 145.012 98.7845 144.902 98.8641C144.792 98.9438 144.66 98.9865 144.524 98.9863H142.891C142.694 98.9863 142.502 99.0485 142.343 99.1641C142.184 99.2797 142.065 99.4426 142.004 99.6296C141.943 99.8166 141.943 100.018 142.004 100.205C142.065 100.392 142.184 100.555 142.343 100.67L143.664 101.629C143.774 101.708 143.856 101.82 143.898 101.949C143.94 102.078 143.94 102.217 143.898 102.346L143.393 103.896C143.33 104.083 143.329 104.285 143.39 104.472C143.451 104.66 143.571 104.823 143.732 104.937C143.891 105.054 144.083 105.117 144.28 105.118Z" fill="#145164"/>
<path d="M130.892 105.118C131.089 105.117 131.281 105.054 131.44 104.937L132.761 103.979C132.871 103.899 133.003 103.856 133.139 103.856C133.275 103.856 133.407 103.899 133.516 103.979L134.838 104.937C134.997 105.052 135.189 105.115 135.386 105.115C135.583 105.115 135.775 105.052 135.934 104.937C136.093 104.821 136.212 104.658 136.273 104.471C136.334 104.284 136.334 104.083 136.273 103.896L135.768 102.346C135.726 102.217 135.726 102.078 135.768 101.949C135.81 101.82 135.892 101.708 136.002 101.629L137.323 100.67C137.482 100.555 137.601 100.392 137.662 100.205C137.722 100.018 137.722 99.8165 137.661 99.6296C137.601 99.4426 137.482 99.2797 137.323 99.1641C137.163 99.0485 136.971 98.9863 136.775 98.9863H135.141C135.006 98.9865 134.873 98.9438 134.764 98.8641C134.654 98.7845 134.572 98.6721 134.531 98.5432L134.026 96.9929C133.965 96.8059 133.846 96.6429 133.687 96.5273C133.528 96.4117 133.336 96.3495 133.139 96.3495C132.942 96.3495 132.75 96.4117 132.591 96.5273C132.431 96.6429 132.313 96.8059 132.252 96.9929L131.747 98.5432C131.706 98.6721 131.624 98.7845 131.514 98.8641C131.404 98.9438 131.272 98.9865 131.136 98.9863H129.503C129.306 98.9863 129.114 99.0485 128.955 99.1641C128.796 99.2797 128.677 99.4426 128.616 99.6296C128.555 99.8165 128.555 100.018 128.616 100.205C128.677 100.392 128.796 100.555 128.955 100.67L130.276 101.629C130.386 101.708 130.468 101.82 130.51 101.949C130.552 102.078 130.552 102.217 130.51 102.346L130.005 103.896C129.942 104.083 129.941 104.285 130.002 104.472C130.063 104.66 130.183 104.823 130.344 104.937C130.503 105.054 130.695 105.117 130.892 105.118Z" fill="#145164"/>
<path d="M117.504 105.118C117.701 105.117 117.893 105.054 118.052 104.937L119.373 103.979C119.483 103.899 119.615 103.856 119.751 103.856C119.886 103.856 120.019 103.899 120.128 103.979L121.45 104.937C121.609 105.052 121.801 105.115 121.998 105.115C122.195 105.115 122.387 105.052 122.546 104.937C122.705 104.821 122.824 104.658 122.885 104.471C122.946 104.284 122.946 104.083 122.885 103.896L122.38 102.346C122.338 102.217 122.338 102.078 122.38 101.949C122.422 101.82 122.504 101.708 122.614 101.629L123.935 100.67C124.094 100.555 124.213 100.392 124.273 100.205C124.334 100.018 124.334 99.8165 124.273 99.6296C124.213 99.4426 124.094 99.2797 123.935 99.1641C123.775 99.0485 123.583 98.9863 123.386 98.9863H121.753C121.618 98.9865 121.485 98.9438 121.376 98.8641C121.266 98.7845 121.184 98.6721 121.142 98.5432L120.638 96.9929C120.577 96.8059 120.458 96.6429 120.299 96.5273C120.14 96.4117 119.948 96.3495 119.751 96.3495C119.554 96.3495 119.362 96.4117 119.203 96.5273C119.043 96.6429 118.925 96.8059 118.864 96.9929L118.359 98.5432C118.317 98.6721 118.236 98.7845 118.126 98.8641C118.016 98.9438 117.884 98.9865 117.748 98.9863H116.115C115.918 98.9863 115.726 99.0485 115.567 99.1641C115.408 99.2797 115.289 99.4426 115.228 99.6296C115.167 99.8165 115.167 100.018 115.228 100.205C115.289 100.392 115.408 100.555 115.567 100.67L116.888 101.629C116.998 101.708 117.08 101.82 117.122 101.949C117.164 102.078 117.164 102.217 117.121 102.346L116.617 103.896C116.554 104.083 116.553 104.285 116.614 104.472C116.675 104.66 116.795 104.823 116.956 104.937C117.114 105.054 117.306 105.117 117.504 105.118Z" fill="#145164"/>
<path d="M104.116 105.118C104.313 105.117 104.505 105.054 104.664 104.937L105.985 103.979C106.095 103.899 106.227 103.856 106.363 103.856C106.499 103.856 106.631 103.899 106.74 103.979L108.062 104.937C108.221 105.052 108.413 105.115 108.61 105.115C108.807 105.115 108.999 105.052 109.158 104.937C109.317 104.821 109.436 104.658 109.497 104.471C109.558 104.284 109.558 104.083 109.497 103.896L108.992 102.346C108.95 102.217 108.95 102.078 108.992 101.949C109.034 101.82 109.116 101.708 109.226 101.629L110.547 100.67C110.706 100.555 110.825 100.392 110.886 100.205C110.946 100.018 110.946 99.8165 110.885 99.6296C110.825 99.4426 110.706 99.2796 110.547 99.1641C110.387 99.0485 110.195 98.9863 109.999 98.9863H108.365C108.23 98.9865 108.097 98.9438 107.988 98.8641C107.878 98.7845 107.796 98.6721 107.754 98.5432L107.25 96.9929C107.189 96.8059 107.07 96.6429 106.911 96.5273C106.752 96.4117 106.56 96.3495 106.363 96.3495C106.166 96.3495 105.974 96.4117 105.815 96.5273C105.655 96.6429 105.537 96.8059 105.476 96.9929L104.971 98.5432C104.929 98.6721 104.848 98.7845 104.738 98.8641C104.628 98.9438 104.496 98.9865 104.36 98.9863H102.727C102.53 98.9863 102.338 99.0485 102.179 99.1641C102.02 99.2796 101.901 99.4426 101.84 99.6296C101.779 99.8165 101.779 100.018 101.84 100.205C101.901 100.392 102.02 100.555 102.179 100.67L103.5 101.629C103.61 101.708 103.692 101.82 103.734 101.949C103.776 102.078 103.776 102.217 103.733 102.346L103.229 103.896C103.166 104.083 103.165 104.285 103.226 104.472C103.287 104.66 103.407 104.823 103.568 104.937C103.726 105.054 103.918 105.117 104.116 105.118Z" fill="#145164"/>
<path d="M95.2216 105.21C95.4383 105.209 95.6492 105.139 95.8237 105.011C96.0006 104.886 96.1323 104.707 96.1994 104.501C96.2664 104.295 96.2652 104.073 96.1959 103.868L95.6912 102.317C95.6551 102.207 95.655 102.088 95.6909 101.978C95.7269 101.867 95.797 101.771 95.8912 101.703L97.2124 100.745C97.3875 100.618 97.5178 100.439 97.5846 100.233C97.6515 100.028 97.6515 99.8066 97.5846 99.6012C97.5178 99.3958 97.3875 99.2169 97.2124 99.0899C97.0374 98.963 96.8266 98.8946 96.6102 98.8946H94.9772C94.8609 98.8949 94.7475 98.8582 94.6534 98.7899C94.5593 98.7217 94.4893 98.6253 94.4536 98.5148L93.9489 96.9645C93.882 96.7592 93.7517 96.5802 93.5767 96.4532C93.4017 96.3263 93.1909 96.2579 92.9745 96.2579C92.7582 96.2579 92.5474 96.3263 92.3724 96.4532C92.1974 96.5802 92.0671 96.7592 92.0002 96.9645L91.4956 98.5148C91.4599 98.6253 91.3899 98.7217 91.2958 98.7899C91.2017 98.8582 91.0883 98.8949 90.972 98.8946H89.3389C89.1225 98.8947 88.9118 98.963 88.7368 99.09C88.5617 99.2169 88.4315 99.3959 88.3646 99.6013C88.2977 99.8067 88.2977 100.028 88.3646 100.233C88.4314 100.439 88.5617 100.618 88.7367 100.745L90.0579 101.703C90.1521 101.771 90.2223 101.867 90.2583 101.978C90.2942 102.088 90.2941 102.207 90.2579 102.317L89.7533 103.868C89.6864 104.073 89.6865 104.294 89.7533 104.5C89.8202 104.705 89.9505 104.884 90.1255 105.011C90.3005 105.138 90.5113 105.206 90.7277 105.206C90.944 105.206 91.1548 105.138 91.3298 105.011L92.6509 104.053C92.7449 103.984 92.8583 103.948 92.9746 103.948C93.0909 103.948 93.2043 103.984 93.2982 104.053L94.6194 105.011C94.7939 105.139 95.0048 105.209 95.2216 105.21ZM92.9746 103.474C92.7582 103.474 92.5474 103.543 92.3725 103.67L91.0513 104.628C90.9573 104.697 90.844 104.733 90.7277 104.733C90.6114 104.733 90.4981 104.697 90.404 104.628C90.3099 104.56 90.2399 104.464 90.2039 104.354C90.168 104.243 90.168 104.124 90.204 104.014L90.7086 102.464C90.7759 102.258 90.7761 102.037 90.7092 101.831C90.6423 101.626 90.5118 101.447 90.3364 101.32L89.0153 100.362C88.9212 100.294 88.8512 100.198 88.8153 100.087C88.7794 99.9767 88.7794 99.8578 88.8153 99.7474C88.8512 99.6371 88.9212 99.5409 89.0153 99.4726C89.1094 99.4044 89.2226 99.3677 89.3389 99.3677H90.972C91.1884 99.3681 91.3994 99.2998 91.5745 99.1728C91.7496 99.0459 91.8798 98.8666 91.9463 98.661L92.4509 97.1108C92.4869 97.0004 92.5569 96.9041 92.651 96.8359C92.745 96.7677 92.8583 96.7309 92.9746 96.7309C93.0909 96.7309 93.2042 96.7677 93.2983 96.8359C93.3924 96.9041 93.4624 97.0004 93.4983 97.1108L94.003 98.661C94.0694 98.8666 94.1996 99.0459 94.3747 99.1729C94.5498 99.2999 94.7608 99.3681 94.9772 99.3677H96.6103C96.7265 99.3677 96.8398 99.4044 96.9339 99.4726C97.028 99.5408 97.098 99.637 97.134 99.7474C97.1699 99.8578 97.1699 99.9767 97.134 100.087C97.098 100.197 97.028 100.294 96.9339 100.362L95.6127 101.32C95.4374 101.447 95.3069 101.626 95.24 101.831C95.1731 102.037 95.1733 102.258 95.2406 102.464L95.7453 104.014C95.7812 104.124 95.7812 104.243 95.7453 104.353C95.7094 104.464 95.6393 104.56 95.5452 104.628C95.4512 104.697 95.3379 104.733 95.2216 104.733C95.1053 104.733 94.992 104.696 94.898 104.628L93.5767 103.67C93.4018 103.543 93.191 103.474 92.9746 103.474Z" fill="#2F2E41"/>
<path d="M176.969 66.2197C177.378 66.2197 177.769 66.3817 178.058 66.67C178.347 66.9583 178.509 67.3493 178.509 67.757C178.509 68.1647 178.347 68.5557 178.058 68.844C177.769 69.1323 177.378 69.2942 176.969 69.2942H99.0221C98.6136 69.2942 98.2219 69.1323 97.9331 68.844C97.6443 68.5557 97.4821 68.1647 97.4821 67.757C97.4821 67.3493 97.6443 66.9583 97.9331 66.67C98.2219 66.3817 98.6136 66.2197 99.0221 66.2197H176.969Z" fill="#CCCCCC"/>
<path d="M176.969 74.2607C177.378 74.2607 177.769 74.4227 178.058 74.711C178.347 74.9993 178.509 75.3903 178.509 75.798C178.509 76.2057 178.347 76.5967 178.058 76.885C177.769 77.1733 177.378 77.3352 176.969 77.3352H99.0221C98.6136 77.3352 98.2219 77.1733 97.9331 76.885C97.6443 76.5967 97.4821 76.2057 97.4821 75.798C97.4821 75.3903 97.6443 74.9993 97.9331 74.711C98.2219 74.4227 98.6136 74.2607 99.0221 74.2607H176.969Z" fill="#CCCCCC"/>
<path d="M176.969 82.3016C177.378 82.3016 177.769 82.4636 178.058 82.7519C178.347 83.0402 178.509 83.4312 178.509 83.8389C178.509 84.2466 178.347 84.6376 178.058 84.9259C177.769 85.2142 177.378 85.3761 176.969 85.3761H99.0221C98.6136 85.3761 98.2219 85.2142 97.9331 84.9259C97.6443 84.6376 97.4821 84.2466 97.4821 83.8389C97.4821 83.4312 97.6443 83.0402 97.9331 82.7519C98.2219 82.4636 98.6136 82.3016 99.0221 82.3016H176.969Z" fill="#CCCCCC"/>
<path d="M176.969 66.2197C177.378 66.2197 177.769 66.3817 178.058 66.67C178.347 66.9583 178.509 67.3493 178.509 67.757C178.509 68.1647 178.347 68.5557 178.058 68.844C177.769 69.1323 177.378 69.2942 176.969 69.2942H99.0221C98.6136 69.2942 98.2219 69.1323 97.9331 68.844C97.6443 68.5557 97.4821 68.1647 97.4821 67.757C97.4821 67.3493 97.6443 66.9583 97.9331 66.67C98.2219 66.3817 98.6136 66.2197 99.0221 66.2197H176.969Z" fill="#CCCCCC"/>
<path d="M176.969 74.2607C177.378 74.2607 177.769 74.4227 178.058 74.711C178.347 74.9993 178.509 75.3903 178.509 75.798C178.509 76.2057 178.347 76.5967 178.058 76.885C177.769 77.1733 177.378 77.3352 176.969 77.3352H99.0221C98.6136 77.3352 98.2219 77.1733 97.9331 76.885C97.6443 76.5967 97.4821 76.2057 97.4821 75.798C97.4821 75.3903 97.6443 74.9993 97.9331 74.711C98.2219 74.4227 98.6136 74.2607 99.0221 74.2607H176.969Z" fill="#CCCCCC"/>
<path d="M176.969 82.3016C177.378 82.3016 177.769 82.4636 178.058 82.7519C178.347 83.0402 178.509 83.4312 178.509 83.8389C178.509 84.2466 178.347 84.6376 178.058 84.9259C177.769 85.2142 177.378 85.3761 176.969 85.3761H99.0221C98.6136 85.3761 98.2219 85.2142 97.9331 84.9259C97.6443 84.6376 97.4821 84.2466 97.4821 83.8389C97.4821 83.4312 97.6443 83.0402 97.9331 82.7519C98.2219 82.4636 98.6136 82.3016 99.0221 82.3016H176.969Z" fill="#CCCCCC"/>
<path d="M87.6498 33.3464H188.342C188.781 33.3459 189.203 33.1713 189.514 32.8609C189.825 32.5506 190 32.1298 190 31.6909V1.65549C190 1.21658 189.825 0.795785 189.514 0.485426C189.203 0.175068 188.781 0.000492633 188.342 0H87.6498C87.2101 0.000492009 86.7886 0.175068 86.4777 0.485426C86.1667 0.795785 85.9919 1.21658 85.9914 1.65549V31.6909C85.9919 32.1298 86.1667 32.5506 86.4777 32.8609C86.7886 33.1713 87.2101 33.3459 87.6498 33.3464ZM188.342 0.472998C188.656 0.473361 188.957 0.59806 189.179 0.819743C189.401 1.04142 189.526 1.34199 189.526 1.65549V31.6909C189.526 32.0044 189.401 32.3049 189.179 32.5266C188.957 32.7483 188.656 32.873 188.342 32.8734H87.6498C87.3357 32.873 87.0346 32.7483 86.8126 32.5266C86.5905 32.305 86.4656 32.0044 86.4652 31.6909V1.65549C86.4656 1.34199 86.5905 1.04142 86.8126 0.819739C87.0346 0.598056 87.3357 0.473356 87.6498 0.472998H188.342Z" fill="#2F2E41"/>
<path d="M144.28 45.9932C144.477 45.9925 144.669 45.929 144.828 45.812L146.149 44.8539C146.259 44.774 146.391 44.7309 146.527 44.7309C146.663 44.7309 146.795 44.774 146.905 44.8539L148.226 45.812C148.385 45.9276 148.577 45.9898 148.774 45.9898C148.971 45.9898 149.163 45.9276 149.322 45.8121C149.481 45.6965 149.6 45.5336 149.661 45.3466C149.722 45.1597 149.722 44.9582 149.661 44.7713L149.156 43.2209C149.114 43.0921 149.114 42.9533 149.156 42.8244C149.198 42.6955 149.28 42.5833 149.39 42.5038L150.711 41.5457C150.87 41.4301 150.989 41.2672 151.05 41.0802C151.111 40.8932 151.111 40.6918 151.05 40.5048C150.989 40.3178 150.87 40.1549 150.711 40.0393C150.552 39.9238 150.36 39.8615 150.163 39.8615H148.53C148.394 39.8618 148.262 39.819 148.152 39.7394C148.042 39.6597 147.96 39.5474 147.919 39.4185L147.414 37.8681C147.353 37.6811 147.235 37.5181 147.075 37.4026C146.916 37.287 146.724 37.2247 146.527 37.2247C146.33 37.2247 146.138 37.287 145.979 37.4026C145.819 37.5181 145.701 37.6811 145.64 37.8681L145.135 39.4185C145.094 39.5474 145.012 39.6597 144.902 39.7394C144.792 39.819 144.66 39.8618 144.524 39.8615H142.891C142.694 39.8615 142.502 39.9238 142.343 40.0393C142.184 40.1549 142.065 40.3178 142.004 40.5048C141.943 40.6918 141.943 40.8932 142.004 41.0802C142.065 41.2672 142.184 41.4301 142.343 41.5457L143.664 42.5038C143.774 42.5833 143.856 42.6955 143.898 42.8244C143.94 42.9533 143.94 43.0921 143.898 43.2209L143.393 44.7713C143.33 44.958 143.329 45.1602 143.39 45.3476C143.451 45.5351 143.571 45.6979 143.732 45.812C143.891 45.929 144.083 45.9924 144.28 45.9932Z" fill="#145164"/>
<path d="M130.892 45.9932C131.089 45.9925 131.281 45.929 131.44 45.812L132.761 44.8539C132.871 44.774 133.003 44.7309 133.139 44.7309C133.275 44.7309 133.407 44.774 133.516 44.8539L134.838 45.812C134.997 45.9276 135.189 45.9898 135.386 45.9898C135.583 45.9899 135.775 45.9276 135.934 45.8121C136.093 45.6965 136.212 45.5336 136.273 45.3466C136.334 45.1596 136.334 44.9582 136.273 44.7713L135.768 43.2209C135.726 43.0921 135.726 42.9533 135.768 42.8244C135.81 42.6955 135.892 42.5833 136.002 42.5038L137.323 41.5457C137.482 41.4301 137.601 41.2672 137.662 41.0802C137.722 40.8932 137.722 40.6918 137.661 40.5048C137.601 40.3178 137.482 40.1549 137.323 40.0393C137.163 39.9238 136.971 39.8615 136.775 39.8615H135.141C135.006 39.8618 134.873 39.819 134.764 39.7394C134.654 39.6597 134.572 39.5474 134.531 39.4185L134.026 37.8681C133.965 37.6811 133.846 37.5181 133.687 37.4026C133.528 37.287 133.336 37.2247 133.139 37.2247C132.942 37.2247 132.75 37.287 132.591 37.4026C132.431 37.5181 132.313 37.6811 132.252 37.8681L131.747 39.4185C131.706 39.5474 131.624 39.6597 131.514 39.7394C131.404 39.819 131.272 39.8618 131.136 39.8615H129.503C129.306 39.8615 129.114 39.9238 128.955 40.0393C128.796 40.1549 128.677 40.3178 128.616 40.5048C128.555 40.6918 128.555 40.8932 128.616 41.0802C128.677 41.2672 128.796 41.4301 128.955 41.5457L130.276 42.5038C130.386 42.5833 130.468 42.6955 130.51 42.8244C130.552 42.9533 130.552 43.0921 130.51 43.2209L130.005 44.7713C129.942 44.958 129.941 45.1602 130.002 45.3476C130.063 45.5351 130.183 45.6979 130.344 45.812C130.503 45.929 130.695 45.9924 130.892 45.9932Z" fill="#145164"/>
<path d="M117.504 45.9932C117.701 45.9924 117.893 45.929 118.052 45.812L119.373 44.8539C119.483 44.7742 119.615 44.7312 119.751 44.7312C119.886 44.7312 120.019 44.7742 120.128 44.8539L121.45 45.812C121.609 45.9276 121.801 45.9898 121.998 45.9898C122.195 45.9898 122.387 45.9276 122.546 45.8121C122.705 45.6965 122.824 45.5336 122.885 45.3466C122.946 45.1596 122.946 44.9582 122.885 44.7713L122.38 43.2209C122.338 43.0921 122.338 42.9533 122.38 42.8244C122.422 42.6955 122.504 42.5833 122.614 42.5038L123.935 41.5457C124.094 41.4301 124.213 41.2672 124.273 41.0802C124.334 40.8932 124.334 40.6918 124.273 40.5048C124.213 40.3178 124.094 40.1549 123.935 40.0393C123.775 39.9238 123.583 39.8615 123.386 39.8615H121.753C121.618 39.8618 121.485 39.819 121.376 39.7394C121.266 39.6597 121.184 39.5474 121.142 39.4185L120.638 37.8681C120.577 37.6811 120.458 37.5181 120.299 37.4026C120.14 37.287 119.948 37.2247 119.751 37.2247C119.554 37.2247 119.362 37.287 119.203 37.4026C119.043 37.5181 118.925 37.6811 118.864 37.8681L118.359 39.4185C118.317 39.5474 118.236 39.6597 118.126 39.7394C118.016 39.819 117.884 39.8618 117.748 39.8615H116.115C115.918 39.8615 115.726 39.9238 115.567 40.0393C115.408 40.1549 115.289 40.3178 115.228 40.5048C115.167 40.6918 115.167 40.8932 115.228 41.0802C115.289 41.2672 115.408 41.4301 115.567 41.5457L116.888 42.5038C116.998 42.5833 117.08 42.6955 117.122 42.8244C117.164 42.9533 117.164 43.0921 117.121 43.2209L116.617 44.7713C116.554 44.958 116.553 45.1601 116.614 45.3476C116.675 45.5351 116.795 45.6979 116.956 45.812C117.114 45.929 117.306 45.9924 117.504 45.9932Z" fill="#145164"/>
<path d="M95.2216 46.0851C95.4383 46.0842 95.6492 46.0146 95.8237 45.8863C96.0006 45.7609 96.1323 45.582 96.1994 45.376C96.2664 45.1701 96.2652 44.948 96.1959 44.7428L95.6912 43.1925C95.6551 43.0821 95.655 42.9632 95.6909 42.8527C95.7269 42.7423 95.797 42.6461 95.8912 42.578L97.2124 41.6198C97.3875 41.4929 97.5178 41.3139 97.5846 41.1085C97.6515 40.9031 97.6515 40.6818 97.5846 40.4764C97.5178 40.271 97.3875 40.0921 97.2124 39.9651C97.0374 39.8382 96.8266 39.7698 96.6102 39.7698H94.9772C94.8609 39.7701 94.7475 39.7334 94.6534 39.6651C94.5593 39.5969 94.4893 39.5005 94.4536 39.39L93.9489 37.8397C93.882 37.6343 93.7517 37.4554 93.5767 37.3284C93.4017 37.2015 93.1909 37.1331 92.9745 37.1331C92.7582 37.1331 92.5474 37.2015 92.3724 37.3284C92.1974 37.4554 92.0671 37.6343 92.0002 37.8397L91.4956 39.39C91.4599 39.5005 91.3899 39.5969 91.2958 39.6651C91.2017 39.7334 91.0883 39.7701 90.972 39.7698H89.3389C89.1225 39.7699 88.9118 39.8382 88.7368 39.9652C88.5617 40.0921 88.4315 40.2711 88.3646 40.4765C88.2977 40.6818 88.2977 40.9031 88.3646 41.1085C88.4314 41.3139 88.5617 41.4929 88.7367 41.6198L90.0579 42.578C90.1521 42.6461 90.2223 42.7423 90.2583 42.8527C90.2942 42.9631 90.2941 43.0821 90.2579 43.1925L89.7533 44.7428C89.6864 44.9482 89.6865 45.1694 89.7533 45.3748C89.8202 45.5802 89.9505 45.7592 90.1255 45.8861C90.3005 46.0131 90.5113 46.0814 90.7277 46.0814C90.944 46.0814 91.1548 46.0131 91.3298 45.8861L92.6509 44.928C92.7449 44.8596 92.8583 44.8227 92.9746 44.8227C93.0909 44.8227 93.2043 44.8596 93.2982 44.928L94.6194 45.8861C94.7939 46.0146 95.0048 46.0843 95.2216 46.0851ZM92.9746 44.3495C92.7582 44.3495 92.5474 44.4181 92.3725 44.5453L91.0513 45.5035C90.9573 45.5717 90.844 45.6085 90.7277 45.6085C90.6114 45.6085 90.4981 45.5718 90.404 45.5036C90.3099 45.4353 90.2399 45.3391 90.2039 45.2287C90.168 45.1183 90.168 44.9994 90.204 44.889L90.7086 43.3387C90.7759 43.1333 90.7761 42.912 90.7092 42.7065C90.6423 42.501 90.5118 42.322 90.3364 42.1954L89.0153 41.2371C88.9212 41.1689 88.8512 41.0727 88.8153 40.9623C88.7794 40.8519 88.7794 40.733 88.8153 40.6226C88.8512 40.5122 88.9212 40.416 89.0153 40.3478C89.1094 40.2796 89.2226 40.2429 89.3389 40.2428H90.972C91.1884 40.2432 91.3994 40.175 91.5745 40.048C91.7496 39.9211 91.8798 39.7418 91.9463 39.5362L92.4509 37.9859C92.4869 37.8755 92.5569 37.7793 92.651 37.7111C92.745 37.6429 92.8583 37.6061 92.9746 37.6061C93.0909 37.6061 93.2042 37.6429 93.2983 37.7111C93.3924 37.7793 93.4624 37.8755 93.4983 37.9859L94.003 39.5362C94.0694 39.7418 94.1996 39.9211 94.3747 40.0481C94.5498 40.175 94.7608 40.2433 94.9772 40.2428H96.6103C96.7265 40.2428 96.8398 40.2796 96.9339 40.3478C97.028 40.416 97.098 40.5122 97.134 40.6226C97.1699 40.733 97.1699 40.8519 97.134 40.9623C97.098 41.0727 97.028 41.1689 96.9339 41.2371L95.6127 42.1954C95.4374 42.322 95.3069 42.501 95.24 42.7065C95.1731 42.912 95.1733 43.1333 95.2406 43.3387L95.7453 44.889C95.7812 44.9994 95.7812 45.1183 95.7453 45.2287C95.7094 45.3391 95.6393 45.4353 95.5452 45.5035C95.4512 45.5717 95.3379 45.6084 95.2216 45.6084C95.1053 45.6084 94.992 45.5717 94.898 45.5035L93.5767 44.5453C93.4018 44.4181 93.191 44.3495 92.9746 44.3495Z" fill="#2F2E41"/>
<path d="M108.726 46.0471C108.943 46.0463 109.154 45.9766 109.328 45.8483C109.505 45.7229 109.637 45.544 109.704 45.338C109.771 45.1321 109.77 44.91 109.701 44.7048L109.196 43.1545C109.16 43.0442 109.16 42.9252 109.196 42.8148C109.232 42.7043 109.302 42.6081 109.396 42.5401L110.717 41.5818C110.892 41.4549 111.022 41.2759 111.089 41.0705C111.156 40.8651 111.156 40.6439 111.089 40.4385C111.022 40.2331 110.892 40.0541 110.717 39.9272C110.542 39.8002 110.331 39.7319 110.115 39.7319H108.482C108.366 39.7321 108.252 39.6954 108.158 39.6272C108.064 39.5589 107.994 39.4626 107.958 39.3521L107.454 37.8018C107.387 37.5964 107.256 37.4174 107.081 37.2905C106.906 37.1635 106.696 37.0952 106.479 37.0952C106.263 37.0952 106.052 37.1635 105.877 37.2905C105.702 37.4174 105.572 37.5964 105.505 37.8018L105 39.3521C104.965 39.4626 104.895 39.5589 104.8 39.6271C104.706 39.6954 104.593 39.7321 104.477 39.7319H102.844C102.627 39.7319 102.416 39.8003 102.241 39.9272C102.066 40.0541 101.936 40.2331 101.869 40.4385C101.802 40.6439 101.802 40.8651 101.869 41.0705C101.936 41.2759 102.066 41.4549 102.241 41.5818L103.563 42.5401C103.657 42.6081 103.727 42.7043 103.763 42.8147C103.799 42.9252 103.799 43.0442 103.763 43.1545L103.258 44.7048C103.191 44.9102 103.191 45.1315 103.258 45.3368C103.325 45.5422 103.455 45.7212 103.63 45.8482C103.805 45.9751 104.016 46.0435 104.232 46.0435C104.449 46.0435 104.659 45.9751 104.834 45.8482L106.156 44.89C106.25 44.8216 106.363 44.7847 106.479 44.7847C106.596 44.7847 106.709 44.8216 106.803 44.89L108.124 45.8482C108.299 45.9766 108.509 46.0463 108.726 46.0471ZM106.479 44.3115C106.263 44.3115 106.052 44.3801 105.877 44.5074L104.556 45.4655C104.462 45.5337 104.349 45.5705 104.232 45.5705C104.116 45.5705 104.003 45.5338 103.909 45.4656C103.815 45.3973 103.745 45.3011 103.709 45.1907C103.673 45.0803 103.673 44.9614 103.709 44.851L104.213 43.3007C104.281 43.0954 104.281 42.874 104.214 42.6685C104.147 42.463 104.016 42.284 103.841 42.1574L102.52 41.1991C102.426 41.1309 102.356 41.0347 102.32 40.9243C102.284 40.8139 102.284 40.695 102.32 40.5846C102.356 40.4743 102.426 40.3781 102.52 40.3098C102.614 40.2416 102.727 40.2049 102.844 40.2049H104.477C104.693 40.2053 104.904 40.1371 105.079 40.0101C105.254 39.8831 105.384 39.7039 105.451 39.4983L105.956 37.948C105.992 37.8376 106.062 37.7414 106.156 37.6731C106.25 37.6049 106.363 37.5681 106.479 37.5681C106.596 37.5681 106.709 37.6049 106.803 37.6731C106.897 37.7414 106.967 37.8376 107.003 37.948L107.508 39.4983C107.574 39.7039 107.704 39.8831 107.879 40.0101C108.054 40.1371 108.265 40.2053 108.482 40.2049H110.115C110.231 40.2049 110.344 40.2416 110.439 40.3098C110.533 40.378 110.603 40.4742 110.639 40.5846C110.675 40.695 110.675 40.8139 110.639 40.9243C110.603 41.0347 110.533 41.1309 110.439 41.1991L109.117 42.1574C108.942 42.2841 108.812 42.463 108.745 42.6685C108.678 42.874 108.678 43.0954 108.745 43.3007L109.25 44.851C109.286 44.9614 109.286 45.0803 109.25 45.1907C109.214 45.3011 109.144 45.3973 109.05 45.4655C108.956 45.5337 108.843 45.5705 108.726 45.5705C108.61 45.5705 108.497 45.5337 108.403 45.4655L107.081 44.5074C106.906 44.3801 106.696 44.3115 106.479 44.3115Z" fill="#2F2E41"/>
<path d="M176.969 7.09497C177.378 7.09497 177.769 7.25693 178.058 7.54522C178.347 7.83351 178.509 8.22451 178.509 8.63221C178.509 9.03992 178.347 9.43092 178.058 9.71921C177.769 10.0075 177.378 10.1695 176.969 10.1695H99.0221C98.6136 10.1695 98.2219 10.0075 97.9331 9.71921C97.6443 9.43092 97.4821 9.03992 97.4821 8.63221C97.4821 8.22451 97.6443 7.83351 97.9331 7.54522C98.2219 7.25693 98.6136 7.09497 99.0221 7.09497H176.969Z" fill="#CCCCCC"/>
<path d="M176.969 15.1359C177.378 15.1359 177.769 15.2979 178.058 15.5862C178.347 15.8745 178.509 16.2655 178.509 16.6732C178.509 17.0809 178.347 17.4719 178.058 17.7602C177.769 18.0485 177.378 18.2104 176.969 18.2104H99.0221C98.6136 18.2104 98.2219 18.0485 97.9331 17.7602C97.6443 17.4719 97.4821 17.0809 97.4821 16.6732C97.4821 16.2655 97.6443 15.8745 97.9331 15.5862C98.2219 15.2979 98.6136 15.1359 99.0221 15.1359H176.969Z" fill="#CCCCCC"/>
<path d="M176.969 23.1769C177.378 23.1769 177.769 23.3388 178.058 23.6271C178.347 23.9154 178.509 24.3064 178.509 24.7141C178.509 25.1218 178.347 25.5128 178.058 25.8011C177.769 26.0894 177.378 26.2514 176.969 26.2514H99.0221C98.6136 26.2514 98.2219 26.0894 97.9331 25.8011C97.6443 25.5128 97.4821 25.1218 97.4821 24.7141C97.4821 24.3064 97.6443 23.9154 97.9331 23.6271C98.2219 23.3388 98.6136 23.1769 99.0221 23.1769H176.969Z" fill="#CCCCCC"/>
<path d="M176.969 7.09497C177.378 7.09497 177.769 7.25693 178.058 7.54522C178.347 7.83351 178.509 8.22451 178.509 8.63221C178.509 9.03992 178.347 9.43092 178.058 9.71921C177.769 10.0075 177.378 10.1695 176.969 10.1695H99.0221C98.6136 10.1695 98.2219 10.0075 97.9331 9.71921C97.6443 9.43092 97.4821 9.03992 97.4821 8.63221C97.4821 8.22451 97.6443 7.83351 97.9331 7.54522C98.2219 7.25693 98.6136 7.09497 99.0221 7.09497H176.969Z" fill="#CCCCCC"/>
<path d="M176.969 15.1359C177.378 15.1359 177.769 15.2979 178.058 15.5862C178.347 15.8745 178.509 16.2655 178.509 16.6732C178.509 17.0809 178.347 17.4719 178.058 17.7602C177.769 18.0485 177.378 18.2104 176.969 18.2104H99.0221C98.6136 18.2104 98.2219 18.0485 97.9331 17.7602C97.6443 17.4719 97.4821 17.0809 97.4821 16.6732C97.4821 16.2655 97.6443 15.8745 97.9331 15.5862C98.2219 15.2979 98.6136 15.1359 99.0221 15.1359H176.969Z" fill="#CCCCCC"/>
<path d="M176.969 23.1769C177.378 23.1769 177.769 23.3388 178.058 23.6271C178.347 23.9154 178.509 24.3064 178.509 24.7141C178.509 25.1218 178.347 25.5128 178.058 25.8011C177.769 26.0894 177.378 26.2514 176.969 26.2514H99.0221C98.6136 26.2514 98.2219 26.0894 97.9331 25.8011C97.6443 25.5128 97.4821 25.1218 97.4821 24.7141C97.4821 24.3064 97.6443 23.9154 97.9331 23.6271C98.2219 23.3388 98.6136 23.1769 99.0221 23.1769H176.969Z" fill="#CCCCCC"/>
</g>
<defs>
<clipPath id="clip0_330_228">
<rect width="190" height="127" fill="white" transform="matrix(-1 0 0 1 190 0)"/>
</clipPath>
</defs>
</svg>
